<svg width="19" height="18" viewBox="0 0 19 18" fill="none" xmlns="http://www.w3.org/2000/svg">
<path fill-rule="evenodd" clip-rule="evenodd" d="M2.75 9.75C2.75 6.02208 5.77208 3 9.5 3C13.2279 3 16.25 6.02208 16.25 9.75C16.25 13.4779 13.2279 16.5 9.5 16.5C5.77208 16.5 2.75 13.4779 2.75 9.75ZM10.25 6.75C10.25 6.33579 9.91421 6 9.5 6C9.08579 6 8.75 6.33579 8.75 6.75V9.75C8.75 9.94891 8.82902 10.1397 8.96967 10.2803L10.4697 11.7803C10.7626 12.0732 11.2374 12.0732 11.5303 11.7803C11.8232 11.4874 11.8232 11.0126 11.5303 10.7197L10.25 9.43934V6.75Z" fill="#323232"/>
<path d="M3.95004 3.97504C3.61867 4.22357 3.14857 4.15641 2.90004 3.82504C2.65152 3.49367 2.71867 3.02357 3.05004 2.77504L4.55004 1.65004C4.88141 1.40152 5.35152 1.46867 5.60004 1.80004C5.84857 2.13141 5.78141 2.60152 5.45004 2.85004L3.95004 3.97504Z" fill="#323232"/>
<path d="M14.45 1.65013C14.1187 1.4016 13.6486 1.46876 13.4 1.80013C13.1515 2.1315 13.2187 2.6016 13.55 2.85013L15.05 3.97513C15.3814 4.22366 15.8515 4.1565 16.1 3.82513C16.3486 3.49376 16.2814 3.02366 15.95 2.77513L14.45 1.65013Z" fill="#323232"/>
</svg>
