<svg width="24" height="24" viewBox="0 0 24 24" fill="none" xmlns="http://www.w3.org/2000/svg">
<path d="M8.26095 5.86114C9.10817 5.84215 9.82904 6.12733 10.552 6.40364C10.7863 6.49307 11.0193 6.5863 11.2503 6.68501C11.8599 6.9453 12.459 6.9377 13.074 6.67911C13.8183 6.36609 14.5584 6.01554 15.3604 5.88898C17.5574 5.54222 19.3991 6.18765 20.8165 7.95479C20.9328 8.09948 20.9517 8.19187 20.7701 8.32011C19.8338 8.98073 19.1083 9.8295 18.7443 10.9297C18.1372 12.766 18.374 14.4893 19.566 16.0379C20.0735 16.6972 20.7207 17.1929 21.4721 17.5426C21.6198 17.6114 21.5533 17.6966 21.5261 17.7818C21.2454 18.669 20.8672 19.514 20.3936 20.3108C19.8421 21.2385 19.2556 22.145 18.4941 22.9179C17.38 24.0489 16.1608 24.2632 14.7182 23.5966C14.2304 23.3714 13.7401 23.1528 13.2033 23.071C12.2473 22.9255 11.3327 23.0638 10.4545 23.4713C9.9989 23.6827 9.53366 23.8654 9.03537 23.9573C8.21074 24.11 7.51372 23.8396 6.88448 23.3288C6.07533 22.6719 5.49211 21.8215 4.92144 20.9647C3.69056 19.1174 2.9379 17.0811 2.58981 14.8879C2.48186 14.2079 2.42162 13.5228 2.4371 12.8348C2.46638 11.5304 2.68394 10.264 3.29645 9.09716C4.11564 7.53758 5.34609 6.47662 7.05601 6.02102C7.46686 5.91134 7.88692 5.84679 8.26095 5.86114Z" fill="white"/>
<path d="M11.9535 4.88161C11.9828 3.84892 12.4116 2.84913 13.1049 1.96493C13.8735 0.984119 14.8822 0.364841 16.0884 0.0750283C16.149 0.0602635 16.2118 0.0552013 16.2729 0.0425457C16.785 -0.0646047 16.7264 0.0206094 16.7239 0.4239C16.7159 1.6865 16.2867 2.80188 15.511 3.77973C14.7864 4.69304 13.8684 5.30557 12.7074 5.50637C12.6392 5.51818 12.5694 5.52789 12.5003 5.52746C11.8569 5.52493 11.9774 5.64094 11.9535 4.88161Z" fill="white"/>
</svg>
