<svg width="20" height="20" viewBox="0 0 20 20" fill="none" xmlns="http://www.w3.org/2000/svg">
<path fill-rule="evenodd" clip-rule="evenodd" d="M11.2192 0.607955C10.607 -0.199478 9.39313 -0.199478 8.78089 0.607955L7.40685 2.42007C7.18852 2.70802 6.83181 2.85577 6.47381 2.80655L4.22086 2.49678C3.21701 2.35876 2.3587 3.21707 2.49672 4.22092L2.80648 6.47387C2.85571 6.83187 2.70796 7.18858 2.42001 7.40692L0.607894 8.78095C-0.199539 9.39319 -0.199539 10.607 0.607894 11.2193L2.42001 12.5933C2.70796 12.8116 2.85571 13.1683 2.80648 13.5263L2.49672 15.7793C2.3587 16.7831 3.217 17.6415 4.22086 17.5034L6.47381 17.1937C6.83181 17.1444 7.18852 17.2922 7.40685 17.5801L8.78089 19.3923C9.39313 20.1997 10.607 20.1997 11.2192 19.3923L12.5932 17.5801C12.8116 17.2922 13.1683 17.1444 13.5263 17.1937L15.7792 17.5034C16.7831 17.6415 17.6414 16.7831 17.5034 15.7793L17.1936 13.5263C17.1444 13.1683 17.2921 12.8116 17.5801 12.5933L19.3922 11.2193C20.1996 10.607 20.1996 9.39319 19.3922 8.78095L17.5801 7.40692C17.2921 7.18858 17.1444 6.83187 17.1936 6.47387L17.5034 4.22092C17.6414 3.21707 16.7831 2.35876 15.7792 2.49678L13.5263 2.80655C13.1683 2.85577 12.8116 2.70802 12.5932 2.42007L11.2192 0.607955ZM12.707 7.2929C12.3165 6.90237 11.6834 6.90237 11.2928 7.2929L7.29283 11.2929C6.90231 11.6834 6.90231 12.3166 7.29283 12.7071C7.68336 13.0976 8.31652 13.0976 8.70705 12.7071L12.707 8.70711C13.0976 8.31658 13.0976 7.68342 12.707 7.2929ZM7.99994 9C7.44766 9 6.99994 8.55229 6.99994 8C6.99994 7.44772 7.44766 7 7.99994 7C8.55223 7 8.99994 7.44772 8.99994 8C8.99994 8.55229 8.55223 9 7.99994 9ZM11.9999 13C12.5522 13 12.9999 12.5523 12.9999 12C12.9999 11.4477 12.5522 11 11.9999 11C11.4477 11 10.9999 11.4477 10.9999 12C10.9999 12.5523 11.4477 13 11.9999 13Z" fill="#323232"/>
</svg>
