<svg width="16" height="17" viewBox="0 0 16 17" fill="none" xmlns="http://www.w3.org/2000/svg">
<path fill-rule="evenodd" clip-rule="evenodd" d="M3.99757 8.5C3.56271 8.5 3.24426 8.90962 3.35149 9.33106L4.2833 12.9932C4.50883 13.8796 5.30692 14.5 6.22154 14.5H9.77686C10.6923 14.5 11.4908 13.8785 11.7156 12.9912L12.643 9.33038C12.7497 8.90912 12.4313 8.5 11.9968 8.5H3.99757ZM6.00004 11.1667C6.00004 10.7985 6.29851 10.5 6.6667 10.5C7.03489 10.5 7.33337 10.7985 7.33337 11.1667V11.8333C7.33337 12.2015 7.03489 12.5 6.6667 12.5C6.29851 12.5 6.00004 12.2015 6.00004 11.8333V11.1667ZM8.66671 11.1667C8.66671 10.7985 8.96518 10.5 9.33337 10.5C9.70156 10.5 10 10.7985 10 11.1667V11.8333C10 12.2015 9.70156 12.5 9.33337 12.5C8.96518 12.5 8.66671 12.2015 8.66671 11.8333V11.1667Z" fill="#323232"/>
<path d="M2 6.49999C2 6.13181 2.29848 5.83333 2.66667 5.83333H13.3333C13.7015 5.83333 14 6.13181 14 6.49999C14 6.86818 13.7015 7.16666 13.3333 7.16666H2.66667C2.29848 7.16666 2 6.86818 2 6.49999Z" fill="#323232"/>
<path fill-rule="evenodd" clip-rule="evenodd" d="M7.13811 3.63807C7.39846 3.37772 7.39846 2.95561 7.13811 2.69526C6.87776 2.43491 6.45565 2.43491 6.1953 2.69526L5.52864 3.36193C5.26829 3.62228 5.26829 4.04439 5.52864 4.30474C5.78899 4.56509 6.2111 4.56509 6.47145 4.30474L7.13811 3.63807ZM8.86197 3.63807C8.60162 3.37772 8.60162 2.95561 8.86197 2.69526C9.12232 2.43491 9.54443 2.43491 9.80478 2.69526L10.4714 3.36193C10.7318 3.62228 10.7318 4.04439 10.4714 4.30474C10.2111 4.56509 9.78899 4.56509 9.52864 4.30474L8.86197 3.63807Z" fill="#323232"/>
</svg>
